<?xml version="1.0" standalone="no"?>
<!DOCTYPE svg PUBLIC "-//W3C//DTD SVG 20010904//EN"
 "http://www.w3.org/TR/2001/REC-SVG-20010904/DTD/svg10.dtd">
<svg version="1.0" xmlns="http://www.w3.org/2000/svg"
 width="512.000000pt" height="512.000000pt" viewBox="0 0 512.000000 512.000000"
 preserveAspectRatio="xMidYMid meet">

<g transform="translate(0.000000,512.000000) scale(0.100000,-0.100000)"
fill="#000000" stroke="none">
<path d="M678 5099 c-58 -30 -78 -79 -78 -187 l0 -89 -117 -6 c-137 -7 -209
-27 -288 -82 -96 -65 -163 -169 -185 -285 -14 -73 -14 -4007 0 -4081 34 -180
179 -325 359 -359 35 -6 586 -10 1590 -10 1299 0 1547 3 1604 15 145 31 273
146 325 294 14 40 17 128 19 716 l4 670 -528 -527 c-409 -407 -539 -532 -578
-550 -27 -14 -207 -78 -399 -143 -376 -127 -433 -139 -537 -115 -89 20 -173
67 -232 129 -94 98 -134 210 -123 339 l6 72 -401 0 c-381 0 -402 1 -439 20
-45 23 -80 80 -80 130 0 50 35 107 80 130 38 19 58 20 489 20 l449 0 50 150
50 150 -499 0 c-481 0 -501 1 -539 20 -45 23 -80 80 -80 130 0 50 35 107 80
130 38 19 58 20 627 20 l588 0 150 150 150 150 -738 0 c-720 0 -739 0 -777 20
-45 23 -80 80 -80 130 0 50 35 107 80 130 38 20 57 20 927 20 l888 0 708 708
707 707 0 291 c0 160 -5 315 -10 345 -35 184 -189 333 -372 359 -35 5 -100 10
-145 10 l-83 0 0 90 c0 112 -20 159 -80 190 -50 25 -90 25 -140 0 -60 -31 -80
-78 -80 -190 l0 -90 -150 0 -150 0 0 90 c0 112 -20 159 -80 190 -50 25 -90 25
-140 0 -60 -31 -80 -78 -80 -190 l0 -90 -150 0 -150 0 0 90 c0 112 -20 159
-80 190 -50 25 -90 25 -140 0 -60 -31 -80 -78 -80 -190 l0 -90 -150 0 -150 0
0 90 c0 71 -4 99 -20 130 -23 45 -80 80 -130 80 -50 0 -107 -35 -130 -80 -16
-31 -20 -59 -20 -130 l0 -90 -150 0 -150 0 0 90 c0 112 -20 159 -80 190 -49
25 -94 25 -142 -1z m1240 -1518 c43 -22 82 -84 82 -131 0 -47 -39 -109 -82
-131 -35 -18 -67 -19 -618 -19 -562 0 -582 1 -620 20 -45 23 -80 80 -80 130 0
48 35 107 78 129 36 19 59 20 620 21 553 0 585 -1 620 -19z m622 -600 c55 -29
75 -64 75 -131 0 -67 -20 -102 -75 -131 -33 -18 -78 -19 -928 -19 -875 0 -894
0 -932 20 -45 23 -80 80 -80 130 0 48 35 107 78 129 36 20 61 20 932 21 853 0
897 -1 930 -19z"/>
<path d="M4550 3952 c-36 -9 -87 -30 -114 -46 -42 -24 -367 -344 -464 -457
l-31 -35 317 -317 317 -317 227 235 c136 142 239 257 258 289 46 82 66 189 53
282 -39 269 -295 436 -563 366z"/>
<path d="M3030 2505 l-695 -695 318 -317 317 -318 697 697 698 698 -315 315
c-173 173 -317 315 -320 315 -3 0 -318 -313 -700 -695z"/>
<path d="M2072 1547 c-36 -41 -48 -70 -151 -379 -67 -203 -111 -350 -111 -375
0 -72 72 -143 145 -143 26 0 509 157 679 221 29 10 67 35 86 54 l34 35 -314
315 c-173 173 -318 315 -321 315 -4 0 -24 -20 -47 -43z"/>
</g>
</svg>
